  0
SECTION
  2
HEADER
  9
$ACADVER
  1
AC1009
  9
$FILLMODE
 70
 0
  9
$SPLFRAME
 70
 1
  9
$EXTMIN
 10
0
 20
0
 30
0.0
  9
$EXTMAX
 10
1058.33
 20
1058.33
 30
0.0
  0
ENDSEC
  0
SECTION
  2
TABLES
  0
TABLE
  2
LAYER
 70
1
  0
LAYER
  2
0
 70
     0
 62
     7
  6
CONTINUOUS
  0
ENDTAB
  0
ENDSEC
  0
SECTION
  2
ENTITIES
  0
LINE
  8
0
 62
     0
 10
114.3
 20
105.03
 30
0.0
 11
114.326
 21
105.02
 31
0.0
  0
LINE
  8
0
 62
     0
 10
114.326
 20
105.02
 30
0.0
 11
114.344
 21
105.011
 31
0.0
  0
LINE
  8
0
 62
     0
 10
114.344
 20
105.011
 30
0.0
 11
114.351
 21
105.004
 31
0.0
  0
LINE
  8
0
 62
     0
 10
114.351
 20
105.004
 30
0.0
 11
114.366
 21
104.99
 31
0.0
  0
LINE
  8
0
 62
     0
 10
114.366
 20
104.99
 30
0.0
 11
114.381
 21
104.965
 31
0.0
  0
LINE
  8
0
 62
     0
 10
114.381
 20
104.965
 30
0.0
 11
114.391
 21
104.938
 31
0.0
  0
LINE
  8
0
 62
     0
 10
114.391
 20
104.938
 30
0.0
 11
114.395
 21
104.909
 31
0.0
  0
LINE
  8
0
 62
     0
 10
114.395
 20
104.909
 30
0.0
 11
114.395
 21
0.381716
 31
0.0
  0
LINE
  8
0
 62
     0
 10
114.395
 20
0.381716
 30
0.0
 11
114.391
 21
0.352778
 31
0.0
  0
LINE
  8
0
 62
     0
 10
114.391
 20
0.352778
 30
0.0
 11
114.381
 21
0.326595
 31
0.0
  0
LINE
  8
0
 62
     0
 10
114.381
 20
0.326595
 30
0.0
 11
114.372
 21
0.308681
 31
0.0
  0
LINE
  8
0
 62
     0
 10
114.372
 20
0.308681
 30
0.0
 11
114.366
 21
0.30179
 31
0.0
  0
LINE
  8
0
 62
     0
 10
114.366
 20
0.30179
 30
0.0
 11
114.351
 21
0.286632
 31
0.0
  0
LINE
  8
0
 62
     0
 10
114.351
 20
0.286632
 30
0.0
 11
114.326
 21
0.271473
 31
0.0
  0
LINE
  8
0
 62
     0
 10
114.326
 20
0.271473
 30
0.0
 11
114.3
 21
0.261827
 31
0.0
  0
LINE
  8
0
 62
     0
 10
114.3
 20
0.261827
 30
0.0
 11
114.271
 21
0.257693
 31
0.0
  0
LINE
  8
0
 62
     0
 10
114.271
 20
0.257693
 30
0.0
 11
0.219108
 21
0.257693
 31
0.0
  0
LINE
  8
0
 62
     0
 10
0.219108
 20
0.257693
 30
0.0
 11
0.190169
 21
0.261827
 31
0.0
  0
LINE
  8
0
 62
     0
 10
0.190169
 20
0.261827
 30
0.0
 11
0.162609
 21
0.271473
 31
0.0
  0
LINE
  8
0
 62
     0
 10
0.162609
 20
0.271473
 30
0.0
 11
0.146072
 21
0.28112
 31
0.0
  0
LINE
  8
0
 62
     0
 10
0.146072
 20
0.28112
 30
0.0
 11
0.137804
 21
0.286632
 31
0.0
  0
LINE
  8
0
 62
     0
 10
0.137804
 20
0.286632
 30
0.0
 11
0.124024
 21
0.30179
 31
0.0
  0
LINE
  8
0
 62
     0
 10
0.124024
 20
0.30179
 30
0.0
 11
0.107487
 21
0.326595
 31
0.0
  0
LINE
  8
0
 62
     0
 10
0.107487
 20
0.326595
 30
0.0
 11
0.0978408
 21
0.352778
 31
0.0
  0
LINE
  8
0
 62
     0
 10
0.0978408
 20
0.352778
 30
0.0
 11
0.0950846
 21
0.373447
 31
0.0
  0
LINE
  8
0
 62
     0
 10
0.0950846
 20
0.373447
 30
0.0
 11
0.0950846
 21
104.918
 31
0.0
  0
LINE
  8
0
 62
     0
 10
0.0950846
 20
104.918
 30
0.0
 11
0.0978408
 21
104.938
 31
0.0
  0
LINE
  8
0
 62
     0
 10
0.0978408
 20
104.938
 30
0.0
 11
0.107487
 21
104.965
 31
0.0
  0
LINE
  8
0
 62
     0
 10
0.107487
 20
104.965
 30
0.0
 11
0.117133
 21
104.982
 31
0.0
  0
LINE
  8
0
 62
     0
 10
0.117133
 20
104.982
 30
0.0
 11
0.124024
 21
104.99
 31
0.0
  0
LINE
  8
0
 62
     0
 10
0.124024
 20
104.99
 30
0.0
 11
0.137804
 21
105.004
 31
0.0
  0
LINE
  8
0
 62
     0
 10
0.137804
 20
105.004
 30
0.0
 11
0.162609
 21
105.02
 31
0.0
  0
LINE
  8
0
 62
     0
 10
0.162609
 20
105.02
 30
0.0
 11
0.190169
 21
105.03
 31
0.0
  0
LINE
  8
0
 62
     0
 10
0.190169
 20
105.03
 30
0.0
 11
0.209462
 21
105.033
 31
0.0
  0
LINE
  8
0
 62
     0
 10
0.209462
 20
105.033
 30
0.0
 11
114.279
 21
105.033
 31
0.0
  0
LINE
  8
0
 62
     0
 10
114.279
 20
105.033
 30
0.0
 11
114.3
 21
105.03
 31
0.0
  0
LINE
  8
0
 62
     0
 10
45.4822
 20
21.5456
 30
0.0
 11
45.4822
 21
20.5466
 31
0.0
  0
LINE
  8
0
 62
     0
 10
45.4822
 20
20.5466
 30
0.0
 11
44.6814
 21
20.5466
 31
0.0
  0
LINE
  8
0
 62
     0
 10
44.6814
 20
20.5466
 30
0.0
 11
44.6814
 21
17.446
 31
0.0
  0
LINE
  8
0
 62
     0
 10
44.6814
 20
17.446
 30
0.0
 11
45.4822
 21
17.446
 31
0.0
  0
LINE
  8
0
 62
     0
 10
45.4822
 20
17.446
 30
0.0
 11
45.4822
 21
16.8465
 31
0.0
  0
LINE
  8
0
 62
     0
 10
45.4822
 20
16.8465
 30
0.0
 11
43.9568
 21
16.8465
 31
0.0
  0
LINE
  8
0
 62
     0
 10
43.9568
 20
16.8465
 30
0.0
 11
43.9568
 21
20.0767
 31
0.0
  0
LINE
  8
0
 62
     0
 10
43.9568
 20
20.0767
 30
0.0
 11
42.2314
 21
20.0767
 31
0.0
  0
LINE
  8
0
 62
     0
 10
42.2314
 20
20.0767
 30
0.0
 11
42.2314
 21
20.9958
 31
0.0
  0
LINE
  8
0
 62
     0
 10
42.2314
 20
20.9958
 30
0.0
 11
38.9308
 21
20.9958
 31
0.0
  0
LINE
  8
0
 62
     0
 10
38.9308
 20
20.9958
 30
0.0
 11
38.9308
 21
20.0767
 31
0.0
  0
LINE
  8
0
 62
     0
 10
38.9308
 20
20.0767
 30
0.0
 11
37.2071
 21
20.0767
 31
0.0
  0
LINE
  8
0
 62
     0
 10
37.2071
 20
20.0767
 30
0.0
 11
37.2071
 21
16.8465
 31
0.0
  0
LINE
  8
0
 62
     0
 10
37.2071
 20
16.8465
 30
0.0
 11
36.3816
 21
16.8465
 31
0.0
  0
LINE
  8
0
 62
     0
 10
36.3816
 20
16.8465
 30
0.0
 11
36.3816
 21
14.0463
 31
0.0
  0
LINE
  8
0
 62
     0
 10
36.3816
 20
14.0463
 30
0.0
 11
37.2071
 21
14.0463
 31
0.0
  0
LINE
  8
0
 62
     0
 10
37.2071
 20
14.0463
 30
0.0
 11
37.2071
 21
7.77628
 31
0.0
  0
LINE
  8
0
 62
     0
 10
37.2071
 20
7.77628
 30
0.0
 11
38.9308
 21
7.77628
 31
0.0
  0
LINE
  8
0
 62
     0
 10
38.9308
 20
7.77628
 30
0.0
 11
38.9308
 21
6.79648
 31
0.0
  0
LINE
  8
0
 62
     0
 10
38.9308
 20
6.79648
 30
0.0
 11
42.2314
 21
6.79648
 31
0.0
  0
LINE
  8
0
 62
     0
 10
42.2314
 20
6.79648
 30
0.0
 11
42.2314
 21
7.77628
 31
0.0
  0
LINE
  8
0
 62
     0
 10
42.2314
 20
7.77628
 30
0.0
 11
43.9568
 21
7.77628
 31
0.0
  0
LINE
  8
0
 62
     0
 10
43.9568
 20
7.77628
 30
0.0
 11
43.9568
 21
12.2466
 31
0.0
  0
LINE
  8
0
 62
     0
 10
43.9568
 20
12.2466
 30
0.0
 11
45.4822
 21
12.2466
 31
0.0
  0
LINE
  8
0
 62
     0
 10
45.4822
 20
12.2466
 30
0.0
 11
45.4822
 21
11.6458
 31
0.0
  0
LINE
  8
0
 62
     0
 10
45.4822
 20
11.6458
 30
0.0
 11
44.6814
 21
11.6458
 31
0.0
  0
LINE
  8
0
 62
     0
 10
44.6814
 20
11.6458
 30
0.0
 11
44.6814
 21
8.54661
 31
0.0
  0
LINE
  8
0
 62
     0
 10
44.6814
 20
8.54661
 30
0.0
 11
45.4822
 21
8.54661
 31
0.0
  0
LINE
  8
0
 62
     0
 10
45.4822
 20
8.54661
 30
0.0
 11
45.4822
 21
7.54613
 31
0.0
  0
LINE
  8
0
 62
     0
 10
45.4822
 20
7.54613
 30
0.0
 11
59.4815
 21
7.54613
 31
0.0
  0
LINE
  8
0
 62
     0
 10
59.4815
 20
7.54613
 30
0.0
 11
59.4815
 21
8.54661
 31
0.0
  0
LINE
  8
0
 62
     0
 10
59.4815
 20
8.54661
 30
0.0
 11
60.2809
 21
8.54661
 31
0.0
  0
LINE
  8
0
 62
     0
 10
60.2809
 20
8.54661
 30
0.0
 11
60.2809
 21
11.6458
 31
0.0
  0
LINE
  8
0
 62
     0
 10
60.2809
 20
11.6458
 30
0.0
 11
59.4815
 21
11.6458
 31
0.0
  0
LINE
  8
0
 62
     0
 10
59.4815
 20
11.6458
 30
0.0
 11
59.4815
 21
12.2466
 31
0.0
  0
LINE
  8
0
 62
     0
 10
59.4815
 20
12.2466
 30
0.0
 11
61.0073
 21
12.2466
 31
0.0
  0
LINE
  8
0
 62
     0
 10
61.0073
 20
12.2466
 30
0.0
 11
61.0073
 21
7.77628
 31
0.0
  0
LINE
  8
0
 62
     0
 10
61.0073
 20
7.77628
 30
0.0
 11
62.7309
 21
7.77628
 31
0.0
  0
LINE
  8
0
 62
     0
 10
62.7309
 20
7.77628
 30
0.0
 11
62.7309
 21
6.79648
 31
0.0
  0
LINE
  8
0
 62
     0
 10
62.7309
 20
6.79648
 30
0.0
 11
66.0315
 21
6.79648
 31
0.0
  0
LINE
  8
0
 62
     0
 10
66.0315
 20
6.79648
 30
0.0
 11
66.0315
 21
7.77628
 31
0.0
  0
LINE
  8
0
 62
     0
 10
66.0315
 20
7.77628
 30
0.0
 11
67.7566
 21
7.77628
 31
0.0
  0
LINE
  8
0
 62
     0
 10
67.7566
 20
7.77628
 30
0.0
 11
67.7566
 21
14.0463
 31
0.0
  0
LINE
  8
0
 62
     0
 10
67.7566
 20
14.0463
 30
0.0
 11
68.5807
 21
14.0463
 31
0.0
  0
LINE
  8
0
 62
     0
 10
68.5807
 20
14.0463
 30
0.0
 11
68.5807
 21
16.8465
 31
0.0
  0
LINE
  8
0
 62
     0
 10
68.5807
 20
16.8465
 30
0.0
 11
67.7566
 21
16.8465
 31
0.0
  0
LINE
  8
0
 62
     0
 10
67.7566
 20
16.8465
 30
0.0
 11
67.7566
 21
20.0767
 31
0.0
  0
LINE
  8
0
 62
     0
 10
67.7566
 20
20.0767
 30
0.0
 11
66.0315
 21
20.0767
 31
0.0
  0
LINE
  8
0
 62
     0
 10
66.0315
 20
20.0767
 30
0.0
 11
66.0315
 21
20.9958
 31
0.0
  0
LINE
  8
0
 62
     0
 10
66.0315
 20
20.9958
 30
0.0
 11
62.7309
 21
20.9958
 31
0.0
  0
LINE
  8
0
 62
     0
 10
62.7309
 20
20.9958
 30
0.0
 11
62.7309
 21
20.0767
 31
0.0
  0
LINE
  8
0
 62
     0
 10
62.7309
 20
20.0767
 30
0.0
 11
61.0073
 21
20.0767
 31
0.0
  0
LINE
  8
0
 62
     0
 10
61.0073
 20
20.0767
 30
0.0
 11
61.0073
 21
16.8465
 31
0.0
  0
LINE
  8
0
 62
     0
 10
61.0073
 20
16.8465
 30
0.0
 11
59.4815
 21
16.8465
 31
0.0
  0
LINE
  8
0
 62
     0
 10
59.4815
 20
16.8465
 30
0.0
 11
59.4815
 21
17.446
 31
0.0
  0
LINE
  8
0
 62
     0
 10
59.4815
 20
17.446
 30
0.0
 11
60.2809
 21
17.446
 31
0.0
  0
LINE
  8
0
 62
     0
 10
60.2809
 20
17.446
 30
0.0
 11
60.2809
 21
20.5466
 31
0.0
  0
LINE
  8
0
 62
     0
 10
60.2809
 20
20.5466
 30
0.0
 11
59.4815
 21
20.5466
 31
0.0
  0
LINE
  8
0
 62
     0
 10
59.4815
 20
20.5466
 30
0.0
 11
59.4815
 21
21.5456
 31
0.0
  0
LINE
  8
0
 62
     0
 10
59.4815
 20
21.5456
 30
0.0
 11
45.4822
 21
21.5456
 31
0.0
  0
LINE
  8
0
 62
     0
 10
7.38216
 20
21.5456
 30
0.0
 11
7.38216
 21
20.5466
 31
0.0
  0
LINE
  8
0
 62
     0
 10
7.38216
 20
20.5466
 30
0.0
 11
6.58153
 21
20.5466
 31
0.0
  0
LINE
  8
0
 62
     0
 10
6.58153
 20
20.5466
 30
0.0
 11
6.58153
 21
17.446
 31
0.0
  0
LINE
  8
0
 62
     0
 10
6.58153
 20
17.446
 30
0.0
 11
7.38216
 21
17.446
 31
0.0
  0
LINE
  8
0
 62
     0
 10
7.38216
 20
17.446
 30
0.0
 11
7.38216
 21
11.6458
 31
0.0
  0
LINE
  8
0
 62
     0
 10
7.38216
 20
11.6458
 30
0.0
 11
6.58153
 21
11.6458
 31
0.0
  0
LINE
  8
0
 62
     0
 10
6.58153
 20
11.6458
 30
0.0
 11
6.58153
 21
8.54661
 31
0.0
  0
LINE
  8
0
 62
     0
 10
6.58153
 20
8.54661
 30
0.0
 11
7.38216
 21
8.54661
 31
0.0
  0
LINE
  8
0
 62
     0
 10
7.38216
 20
8.54661
 30
0.0
 11
7.38216
 21
7.54613
 31
0.0
  0
LINE
  8
0
 62
     0
 10
7.38216
 20
7.54613
 30
0.0
 11
21.3817
 21
7.54613
 31
0.0
  0
LINE
  8
0
 62
     0
 10
21.3817
 20
7.54613
 30
0.0
 11
21.3817
 21
8.54661
 31
0.0
  0
LINE
  8
0
 62
     0
 10
21.3817
 20
8.54661
 30
0.0
 11
22.1809
 21
8.54661
 31
0.0
  0
LINE
  8
0
 62
     0
 10
22.1809
 20
8.54661
 30
0.0
 11
22.1809
 21
11.6458
 31
0.0
  0
LINE
  8
0
 62
     0
 10
22.1809
 20
11.6458
 30
0.0
 11
21.3817
 21
11.6458
 31
0.0
  0
LINE
  8
0
 62
     0
 10
21.3817
 20
11.6458
 30
0.0
 11
21.3817
 21
17.446
 31
0.0
  0
LINE
  8
0
 62
     0
 10
21.3817
 20
17.446
 30
0.0
 11
22.1809
 21
17.446
 31
0.0
  0
LINE
  8
0
 62
     0
 10
22.1809
 20
17.446
 30
0.0
 11
22.1809
 21
20.5466
 31
0.0
  0
LINE
  8
0
 62
     0
 10
22.1809
 20
20.5466
 30
0.0
 11
21.3817
 21
20.5466
 31
0.0
  0
LINE
  8
0
 62
     0
 10
21.3817
 20
20.5466
 30
0.0
 11
21.3817
 21
21.5456
 31
0.0
  0
LINE
  8
0
 62
     0
 10
21.3817
 20
21.5456
 30
0.0
 11
7.38216
 21
21.5456
 31
0.0
  0
LINE
  8
0
 62
     0
 10
74.0572
 20
21.5456
 30
0.0
 11
74.0572
 21
20.5466
 31
0.0
  0
LINE
  8
0
 62
     0
 10
74.0572
 20
20.5466
 30
0.0
 11
73.2564
 21
20.5466
 31
0.0
  0
LINE
  8
0
 62
     0
 10
73.2564
 20
20.5466
 30
0.0
 11
73.2564
 21
17.446
 31
0.0
  0
LINE
  8
0
 62
     0
 10
73.2564
 20
17.446
 30
0.0
 11
74.0572
 21
17.446
 31
0.0
  0
LINE
  8
0
 62
     0
 10
74.0572
 20
17.446
 30
0.0
 11
74.0572
 21
11.6458
 31
0.0
  0
LINE
  8
0
 62
     0
 10
74.0572
 20
11.6458
 30
0.0
 11
73.2564
 21
11.6458
 31
0.0
  0
LINE
  8
0
 62
     0
 10
73.2564
 20
11.6458
 30
0.0
 11
73.2564
 21
8.54661
 31
0.0
  0
LINE
  8
0
 62
     0
 10
73.2564
 20
8.54661
 30
0.0
 11
74.0572
 21
8.54661
 31
0.0
  0
LINE
  8
0
 62
     0
 10
74.0572
 20
8.54661
 30
0.0
 11
74.0572
 21
7.54613
 31
0.0
  0
LINE
  8
0
 62
     0
 10
74.0572
 20
7.54613
 30
0.0
 11
88.0565
 21
7.54613
 31
0.0
  0
LINE
  8
0
 62
     0
 10
88.0565
 20
7.54613
 30
0.0
 11
88.0565
 21
8.54661
 31
0.0
  0
LINE
  8
0
 62
     0
 10
88.0565
 20
8.54661
 30
0.0
 11
88.8559
 21
8.54661
 31
0.0
  0
LINE
  8
0
 62
     0
 10
88.8559
 20
8.54661
 30
0.0
 11
88.8559
 21
11.6458
 31
0.0
  0
LINE
  8
0
 62
     0
 10
88.8559
 20
11.6458
 30
0.0
 11
88.0565
 21
11.6458
 31
0.0
  0
LINE
  8
0
 62
     0
 10
88.0565
 20
11.6458
 30
0.0
 11
88.0565
 21
17.446
 31
0.0
  0
LINE
  8
0
 62
     0
 10
88.0565
 20
17.446
 30
0.0
 11
88.8559
 21
17.446
 31
0.0
  0
LINE
  8
0
 62
     0
 10
88.8559
 20
17.446
 30
0.0
 11
88.8559
 21
20.5466
 31
0.0
  0
LINE
  8
0
 62
     0
 10
88.8559
 20
20.5466
 30
0.0
 11
88.0565
 21
20.5466
 31
0.0
  0
LINE
  8
0
 62
     0
 10
88.0565
 20
20.5466
 30
0.0
 11
88.0565
 21
21.5456
 31
0.0
  0
LINE
  8
0
 62
     0
 10
88.0565
 20
21.5456
 30
0.0
 11
74.0572
 21
21.5456
 31
0.0
  0
LINE
  8
0
 62
     0
 10
99.6061
 20
40.1712
 30
0.0
 11
99.6061
 21
39.3457
 31
0.0
  0
LINE
  8
0
 62
     0
 10
99.6061
 20
39.3457
 30
0.0
 11
93.3358
 21
39.3457
 31
0.0
  0
LINE
  8
0
 62
     0
 10
93.3358
 20
39.3457
 30
0.0
 11
93.3358
 21
37.622
 31
0.0
  0
LINE
  8
0
 62
     0
 10
93.3358
 20
37.622
 30
0.0
 11
92.3562
 21
37.622
 31
0.0
  0
LINE
  8
0
 62
     0
 10
92.3562
 20
37.622
 30
0.0
 11
92.3562
 21
34.3214
 31
0.0
  0
LINE
  8
0
 62
     0
 10
92.3562
 20
34.3214
 30
0.0
 11
93.3358
 21
34.3214
 31
0.0
  0
LINE
  8
0
 62
     0
 10
93.3358
 20
34.3214
 30
0.0
 11
93.3358
 21
32.5961
 31
0.0
  0
LINE
  8
0
 62
     0
 10
93.3358
 20
32.5961
 30
0.0
 11
97.8062
 21
32.5961
 31
0.0
  0
LINE
  8
0
 62
     0
 10
97.8062
 20
32.5961
 30
0.0
 11
97.8062
 21
31.0706
 31
0.0
  0
LINE
  8
0
 62
     0
 10
97.8062
 20
31.0706
 30
0.0
 11
97.2069
 21
31.0706
 31
0.0
  0
LINE
  8
0
 62
     0
 10
97.2069
 20
31.0706
 30
0.0
 11
97.2069
 21
31.8713
 31
0.0
  0
LINE
  8
0
 62
     0
 10
97.2069
 20
31.8713
 30
0.0
 11
94.1063
 21
31.8713
 31
0.0
  0
LINE
  8
0
 62
     0
 10
94.1063
 20
31.8713
 30
0.0
 11
94.1063
 21
31.0706
 31
0.0
  0
LINE
  8
0
 62
     0
 10
94.1063
 20
31.0706
 30
0.0
 11
93.1072
 21
31.0706
 31
0.0
  0
LINE
  8
0
 62
     0
 10
93.1072
 20
31.0706
 30
0.0
 11
93.1072
 21
17.0711
 31
0.0
  0
LINE
  8
0
 62
     0
 10
93.1072
 20
17.0711
 30
0.0
 11
94.1063
 21
17.0711
 31
0.0
  0
LINE
  8
0
 62
     0
 10
94.1063
 20
17.0711
 30
0.0
 11
94.1063
 21
16.2719
 31
0.0
  0
LINE
  8
0
 62
     0
 10
94.1063
 20
16.2719
 30
0.0
 11
97.2069
 21
16.2719
 31
0.0
  0
LINE
  8
0
 62
     0
 10
97.2069
 20
16.2719
 30
0.0
 11
97.2069
 21
17.0711
 31
0.0
  0
LINE
  8
0
 62
     0
 10
97.2069
 20
17.0711
 30
0.0
 11
97.8062
 21
17.0711
 31
0.0
  0
LINE
  8
0
 62
     0
 10
97.8062
 20
17.0711
 30
0.0
 11
97.8062
 21
15.5456
 31
0.0
  0
LINE
  8
0
 62
     0
 10
97.8062
 20
15.5456
 30
0.0
 11
93.3358
 21
15.5456
 31
0.0
  0
LINE
  8
0
 62
     0
 10
93.3358
 20
15.5456
 30
0.0
 11
93.3358
 21
13.8217
 31
0.0
  0
LINE
  8
0
 62
     0
 10
93.3358
 20
13.8217
 30
0.0
 11
92.3562
 21
13.8217
 31
0.0
  0
LINE
  8
0
 62
     0
 10
92.3562
 20
13.8217
 30
0.0
 11
92.3562
 21
10.5213
 31
0.0
  0
LINE
  8
0
 62
     0
 10
92.3562
 20
10.5213
 30
0.0
 11
93.3358
 21
10.5213
 31
0.0
  0
LINE
  8
0
 62
     0
 10
93.3358
 20
10.5213
 30
0.0
 11
93.3358
 21
8.79602
 31
0.0
  0
LINE
  8
0
 62
     0
 10
93.3358
 20
8.79602
 30
0.0
 11
99.6061
 21
8.79602
 31
0.0
  0
LINE
  8
0
 62
     0
 10
99.6061
 20
8.79602
 30
0.0
 11
99.6061
 21
7.97197
 31
0.0
  0
LINE
  8
0
 62
     0
 10
99.6061
 20
7.97197
 30
0.0
 11
102.406
 21
7.97197
 31
0.0
  0
LINE
  8
0
 62
     0
 10
102.406
 20
7.97197
 30
0.0
 11
102.406
 21
8.79602
 31
0.0
  0
LINE
  8
0
 62
     0
 10
102.406
 20
8.79602
 30
0.0
 11
105.636
 21
8.79602
 31
0.0
  0
LINE
  8
0
 62
     0
 10
105.636
 20
8.79602
 30
0.0
 11
105.636
 21
10.5213
 31
0.0
  0
LINE
  8
0
 62
     0
 10
105.636
 20
10.5213
 30
0.0
 11
106.557
 21
10.5213
 31
0.0
  0
LINE
  8
0
 62
     0
 10
106.557
 20
10.5213
 30
0.0
 11
106.557
 21
13.8217
 31
0.0
  0
LINE
  8
0
 62
     0
 10
106.557
 20
13.8217
 30
0.0
 11
105.636
 21
13.8217
 31
0.0
  0
LINE
  8
0
 62
     0
 10
105.636
 20
13.8217
 30
0.0
 11
105.636
 21
15.5456
 31
0.0
  0
LINE
  8
0
 62
     0
 10
105.636
 20
15.5456
 30
0.0
 11
102.406
 21
15.5456
 31
0.0
  0
LINE
  8
0
 62
     0
 10
102.406
 20
15.5456
 30
0.0
 11
102.406
 21
17.0711
 31
0.0
  0
LINE
  8
0
 62
     0
 10
102.406
 20
17.0711
 30
0.0
 11
103.007
 21
17.0711
 31
0.0
  0
LINE
  8
0
 62
     0
 10
103.007
 20
17.0711
 30
0.0
 11
103.007
 21
16.2719
 31
0.0
  0
LINE
  8
0
 62
     0
 10
103.007
 20
16.2719
 30
0.0
 11
106.106
 21
16.2719
 31
0.0
  0
LINE
  8
0
 62
     0
 10
106.106
 20
16.2719
 30
0.0
 11
106.106
 21
17.0711
 31
0.0
  0
LINE
  8
0
 62
     0
 10
106.106
 20
17.0711
 30
0.0
 11
107.107
 21
17.0711
 31
0.0
  0
LINE
  8
0
 62
     0
 10
107.107
 20
17.0711
 30
0.0
 11
107.107
 21
31.0706
 31
0.0
  0
LINE
  8
0
 62
     0
 10
107.107
 20
31.0706
 30
0.0
 11
106.106
 21
31.0706
 31
0.0
  0
LINE
  8
0
 62
     0
 10
106.106
 20
31.0706
 30
0.0
 11
106.106
 21
31.8713
 31
0.0
  0
LINE
  8
0
 62
     0
 10
106.106
 20
31.8713
 30
0.0
 11
103.007
 21
31.8713
 31
0.0
  0
LINE
  8
0
 62
     0
 10
103.007
 20
31.8713
 30
0.0
 11
103.007
 21
31.0706
 31
0.0
  0
LINE
  8
0
 62
     0
 10
103.007
 20
31.0706
 30
0.0
 11
102.406
 21
31.0706
 31
0.0
  0
LINE
  8
0
 62
     0
 10
102.406
 20
31.0706
 30
0.0
 11
102.406
 21
32.5961
 31
0.0
  0
LINE
  8
0
 62
     0
 10
102.406
 20
32.5961
 30
0.0
 11
105.636
 21
32.5961
 31
0.0
  0
LINE
  8
0
 62
     0
 10
105.636
 20
32.5961
 30
0.0
 11
105.636
 21
34.3214
 31
0.0
  0
LINE
  8
0
 62
     0
 10
105.636
 20
34.3214
 30
0.0
 11
106.557
 21
34.3214
 31
0.0
  0
LINE
  8
0
 62
     0
 10
106.557
 20
34.3214
 30
0.0
 11
106.557
 21
37.622
 31
0.0
  0
LINE
  8
0
 62
     0
 10
106.557
 20
37.622
 30
0.0
 11
105.636
 21
37.622
 31
0.0
  0
LINE
  8
0
 62
     0
 10
105.636
 20
37.622
 30
0.0
 11
105.636
 21
39.3457
 31
0.0
  0
LINE
  8
0
 62
     0
 10
105.636
 20
39.3457
 30
0.0
 11
102.406
 21
39.3457
 31
0.0
  0
LINE
  8
0
 62
     0
 10
102.406
 20
39.3457
 30
0.0
 11
102.406
 21
40.1712
 31
0.0
  0
LINE
  8
0
 62
     0
 10
102.406
 20
40.1712
 30
0.0
 11
99.6061
 21
40.1712
 31
0.0
  0
LINE
  8
0
 62
     0
 10
7.38216
 20
40.5955
 30
0.0
 11
7.38216
 21
39.5965
 31
0.0
  0
LINE
  8
0
 62
     0
 10
7.38216
 20
39.5965
 30
0.0
 11
6.58153
 21
39.5965
 31
0.0
  0
LINE
  8
0
 62
     0
 10
6.58153
 20
39.5965
 30
0.0
 11
6.58153
 21
36.4959
 31
0.0
  0
LINE
  8
0
 62
     0
 10
6.58153
 20
36.4959
 30
0.0
 11
7.38216
 21
36.4959
 31
0.0
  0
LINE
  8
0
 62
     0
 10
7.38216
 20
36.4959
 30
0.0
 11
7.38216
 21
30.6958
 31
0.0
  0
LINE
  8
0
 62
     0
 10
7.38216
 20
30.6958
 30
0.0
 11
6.58153
 21
30.6958
 31
0.0
  0
LINE
  8
0
 62
     0
 10
6.58153
 20
30.6958
 30
0.0
 11
6.58153
 21
27.5966
 31
0.0
  0
LINE
  8
0
 62
     0
 10
6.58153
 20
27.5966
 30
0.0
 11
7.38216
 21
27.5966
 31
0.0
  0
LINE
  8
0
 62
     0
 10
7.38216
 20
27.5966
 30
0.0
 11
7.38216
 21
26.5961
 31
0.0
  0
LINE
  8
0
 62
     0
 10
7.38216
 20
26.5961
 30
0.0
 11
21.3817
 21
26.5961
 31
0.0
  0
LINE
  8
0
 62
     0
 10
21.3817
 20
26.5961
 30
0.0
 11
21.3817
 21
27.5966
 31
0.0
  0
LINE
  8
0
 62
     0
 10
21.3817
 20
27.5966
 30
0.0
 11
22.1809
 21
27.5966
 31
0.0
  0
LINE
  8
0
 62
     0
 10
22.1809
 20
27.5966
 30
0.0
 11
22.1809
 21
30.6958
 31
0.0
  0
LINE
  8
0
 62
     0
 10
22.1809
 20
30.6958
 30
0.0
 11
21.3817
 21
30.6958
 31
0.0
  0
LINE
  8
0
 62
     0
 10
21.3817
 20
30.6958
 30
0.0
 11
21.3817
 21
36.4959
 31
0.0
  0
LINE
  8
0
 62
     0
 10
21.3817
 20
36.4959
 30
0.0
 11
22.1809
 21
36.4959
 31
0.0
  0
LINE
  8
0
 62
     0
 10
22.1809
 20
36.4959
 30
0.0
 11
22.1809
 21
39.5965
 31
0.0
  0
LINE
  8
0
 62
     0
 10
22.1809
 20
39.5965
 30
0.0
 11
21.3817
 21
39.5965
 31
0.0
  0
LINE
  8
0
 62
     0
 10
21.3817
 20
39.5965
 30
0.0
 11
21.3817
 21
40.5955
 31
0.0
  0
LINE
  8
0
 62
     0
 10
21.3817
 20
40.5955
 30
0.0
 11
7.38216
 21
40.5955
 31
0.0
  0
LINE
  8
0
 62
     0
 10
35.9572
 20
40.5955
 30
0.0
 11
35.9572
 21
39.5965
 31
0.0
  0
LINE
  8
0
 62
     0
 10
35.9572
 20
39.5965
 30
0.0
 11
35.1565
 21
39.5965
 31
0.0
  0
LINE
  8
0
 62
     0
 10
35.1565
 20
39.5965
 30
0.0
 11
35.1565
 21
36.4959
 31
0.0
  0
LINE
  8
0
 62
     0
 10
35.1565
 20
36.4959
 30
0.0
 11
35.9572
 21
36.4959
 31
0.0
  0
LINE
  8
0
 62
     0
 10
35.9572
 20
36.4959
 30
0.0
 11
35.9572
 21
30.6958
 31
0.0
  0
LINE
  8
0
 62
     0
 10
35.9572
 20
30.6958
 30
0.0
 11
35.1565
 21
30.6958
 31
0.0
  0
LINE
  8
0
 62
     0
 10
35.1565
 20
30.6958
 30
0.0
 11
35.1565
 21
27.5966
 31
0.0
  0
LINE
  8
0
 62
     0
 10
35.1565
 20
27.5966
 30
0.0
 11
35.9572
 21
27.5966
 31
0.0
  0
LINE
  8
0
 62
     0
 10
35.9572
 20
27.5966
 30
0.0
 11
35.9572
 21
26.5961
 31
0.0
  0
LINE
  8
0
 62
     0
 10
35.9572
 20
26.5961
 30
0.0
 11
49.9565
 21
26.5961
 31
0.0
  0
LINE
  8
0
 62
     0
 10
49.9565
 20
26.5961
 30
0.0
 11
49.9565
 21
27.5966
 31
0.0
  0
LINE
  8
0
 62
     0
 10
49.9565
 20
27.5966
 30
0.0
 11
50.7559
 21
27.5966
 31
0.0
  0
LINE
  8
0
 62
     0
 10
50.7559
 20
27.5966
 30
0.0
 11
50.7559
 21
30.6958
 31
0.0
  0
LINE
  8
0
 62
     0
 10
50.7559
 20
30.6958
 30
0.0
 11
49.9565
 21
30.6958
 31
0.0
  0
LINE
  8
0
 62
     0
 10
49.9565
 20
30.6958
 30
0.0
 11
49.9565
 21
36.4959
 31
0.0
  0
LINE
  8
0
 62
     0
 10
49.9565
 20
36.4959
 30
0.0
 11
50.7559
 21
36.4959
 31
0.0
  0
LINE
  8
0
 62
     0
 10
50.7559
 20
36.4959
 30
0.0
 11
50.7559
 21
39.5965
 31
0.0
  0
LINE
  8
0
 62
     0
 10
50.7559
 20
39.5965
 30
0.0
 11
49.9565
 21
39.5965
 31
0.0
  0
LINE
  8
0
 62
     0
 10
49.9565
 20
39.5965
 30
0.0
 11
49.9565
 21
40.5955
 31
0.0
  0
LINE
  8
0
 62
     0
 10
49.9565
 20
40.5955
 30
0.0
 11
35.9572
 21
40.5955
 31
0.0
  0
LINE
  8
0
 62
     0
 10
55.0072
 20
40.5955
 30
0.0
 11
55.0072
 21
39.5965
 31
0.0
  0
LINE
  8
0
 62
     0
 10
55.0072
 20
39.5965
 30
0.0
 11
54.2064
 21
39.5965
 31
0.0
  0
LINE
  8
0
 62
     0
 10
54.2064
 20
39.5965
 30
0.0
 11
54.2064
 21
36.4959
 31
0.0
  0
LINE
  8
0
 62
     0
 10
54.2064
 20
36.4959
 30
0.0
 11
55.0072
 21
36.4959
 31
0.0
  0
LINE
  8
0
 62
     0
 10
55.0072
 20
36.4959
 30
0.0
 11
55.0072
 21
30.6958
 31
0.0
  0
LINE
  8
0
 62
     0
 10
55.0072
 20
30.6958
 30
0.0
 11
54.2064
 21
30.6958
 31
0.0
  0
LINE
  8
0
 62
     0
 10
54.2064
 20
30.6958
 30
0.0
 11
54.2064
 21
27.5966
 31
0.0
  0
LINE
  8
0
 62
     0
 10
54.2064
 20
27.5966
 30
0.0
 11
55.0072
 21
27.5966
 31
0.0
  0
LINE
  8
0
 62
     0
 10
55.0072
 20
27.5966
 30
0.0
 11
55.0072
 21
26.5961
 31
0.0
  0
LINE
  8
0
 62
     0
 10
55.0072
 20
26.5961
 30
0.0
 11
69.0065
 21
26.5961
 31
0.0
  0
LINE
  8
0
 62
     0
 10
69.0065
 20
26.5961
 30
0.0
 11
69.0065
 21
27.5966
 31
0.0
  0
LINE
  8
0
 62
     0
 10
69.0065
 20
27.5966
 30
0.0
 11
69.8059
 21
27.5966
 31
0.0
  0
LINE
  8
0
 62
     0
 10
69.8059
 20
27.5966
 30
0.0
 11
69.8059
 21
30.6958
 31
0.0
  0
LINE
  8
0
 62
     0
 10
69.8059
 20
30.6958
 30
0.0
 11
69.0065
 21
30.6958
 31
0.0
  0
LINE
  8
0
 62
     0
 10
69.0065
 20
30.6958
 30
0.0
 11
69.0065
 21
36.4959
 31
0.0
  0
LINE
  8
0
 62
     0
 10
69.0065
 20
36.4959
 30
0.0
 11
69.8059
 21
36.4959
 31
0.0
  0
LINE
  8
0
 62
     0
 10
69.8059
 20
36.4959
 30
0.0
 11
69.8059
 21
39.5965
 31
0.0
  0
LINE
  8
0
 62
     0
 10
69.8059
 20
39.5965
 30
0.0
 11
69.0065
 21
39.5965
 31
0.0
  0
LINE
  8
0
 62
     0
 10
69.0065
 20
39.5965
 30
0.0
 11
69.0065
 21
40.5955
 31
0.0
  0
LINE
  8
0
 62
     0
 10
69.0065
 20
40.5955
 30
0.0
 11
55.0072
 21
40.5955
 31
0.0
  0
LINE
  8
0
 62
     0
 10
74.0572
 20
40.5955
 30
0.0
 11
74.0572
 21
39.5965
 31
0.0
  0
LINE
  8
0
 62
     0
 10
74.0572
 20
39.5965
 30
0.0
 11
73.2564
 21
39.5965
 31
0.0
  0
LINE
  8
0
 62
     0
 10
73.2564
 20
39.5965
 30
0.0
 11
73.2564
 21
36.4959
 31
0.0
  0
LINE
  8
0
 62
     0
 10
73.2564
 20
36.4959
 30
0.0
 11
74.0572
 21
36.4959
 31
0.0
  0
LINE
  8
0
 62
     0
 10
74.0572
 20
36.4959
 30
0.0
 11
74.0572
 21
30.6958
 31
0.0
  0
LINE
  8
0
 62
     0
 10
74.0572
 20
30.6958
 30
0.0
 11
73.2564
 21
30.6958
 31
0.0
  0
LINE
  8
0
 62
     0
 10
73.2564
 20
30.6958
 30
0.0
 11
73.2564
 21
27.5966
 31
0.0
  0
LINE
  8
0
 62
     0
 10
73.2564
 20
27.5966
 30
0.0
 11
74.0572
 21
27.5966
 31
0.0
  0
LINE
  8
0
 62
     0
 10
74.0572
 20
27.5966
 30
0.0
 11
74.0572
 21
26.5961
 31
0.0
  0
LINE
  8
0
 62
     0
 10
74.0572
 20
26.5961
 30
0.0
 11
88.0565
 21
26.5961
 31
0.0
  0
LINE
  8
0
 62
     0
 10
88.0565
 20
26.5961
 30
0.0
 11
88.0565
 21
27.5966
 31
0.0
  0
LINE
  8
0
 62
     0
 10
88.0565
 20
27.5966
 30
0.0
 11
88.8559
 21
27.5966
 31
0.0
  0
LINE
  8
0
 62
     0
 10
88.8559
 20
27.5966
 30
0.0
 11
88.8559
 21
30.6958
 31
0.0
  0
LINE
  8
0
 62
     0
 10
88.8559
 20
30.6958
 30
0.0
 11
88.0565
 21
30.6958
 31
0.0
  0
LINE
  8
0
 62
     0
 10
88.0565
 20
30.6958
 30
0.0
 11
88.0565
 21
36.4959
 31
0.0
  0
LINE
  8
0
 62
     0
 10
88.0565
 20
36.4959
 30
0.0
 11
88.8559
 21
36.4959
 31
0.0
  0
LINE
  8
0
 62
     0
 10
88.8559
 20
36.4959
 30
0.0
 11
88.8559
 21
39.5965
 31
0.0
  0
LINE
  8
0
 62
     0
 10
88.8559
 20
39.5965
 30
0.0
 11
88.0565
 21
39.5965
 31
0.0
  0
LINE
  8
0
 62
     0
 10
88.0565
 20
39.5965
 30
0.0
 11
88.0565
 21
40.5955
 31
0.0
  0
LINE
  8
0
 62
     0
 10
88.0565
 20
40.5955
 30
0.0
 11
74.0572
 21
40.5955
 31
0.0
  0
LINE
  8
0
 62
     0
 10
7.38216
 20
59.6456
 30
0.0
 11
7.38216
 21
58.6465
 31
0.0
  0
LINE
  8
0
 62
     0
 10
7.38216
 20
58.6465
 30
0.0
 11
6.58153
 21
58.6465
 31
0.0
  0
LINE
  8
0
 62
     0
 10
6.58153
 20
58.6465
 30
0.0
 11
6.58153
 21
55.5459
 31
0.0
  0
LINE
  8
0
 62
     0
 10
6.58153
 20
55.5459
 30
0.0
 11
7.38216
 21
55.5459
 31
0.0
  0
LINE
  8
0
 62
     0
 10
7.38216
 20
55.5459
 30
0.0
 11
7.38216
 21
49.7459
 31
0.0
  0
LINE
  8
0
 62
     0
 10
7.38216
 20
49.7459
 30
0.0
 11
6.58153
 21
49.7459
 31
0.0
  0
LINE
  8
0
 62
     0
 10
6.58153
 20
49.7459
 30
0.0
 11
6.58153
 21
46.6467
 31
0.0
  0
LINE
  8
0
 62
     0
 10
6.58153
 20
46.6467
 30
0.0
 11
7.38216
 21
46.6467
 31
0.0
  0
LINE
  8
0
 62
     0
 10
7.38216
 20
46.6467
 30
0.0
 11
7.38216
 21
45.6463
 31
0.0
  0
LINE
  8
0
 62
     0
 10
7.38216
 20
45.6463
 30
0.0
 11
21.3817
 21
45.6463
 31
0.0
  0
LINE
  8
0
 62
     0
 10
21.3817
 20
45.6463
 30
0.0
 11
21.3817
 21
46.6467
 31
0.0
  0
LINE
  8
0
 62
     0
 10
21.3817
 20
46.6467
 30
0.0
 11
22.1809
 21
46.6467
 31
0.0
  0
LINE
  8
0
 62
     0
 10
22.1809
 20
46.6467
 30
0.0
 11
22.1809
 21
49.7459
 31
0.0
  0
LINE
  8
0
 62
     0
 10
22.1809
 20
49.7459
 30
0.0
 11
21.3817
 21
49.7459
 31
0.0
  0
LINE
  8
0
 62
     0
 10
21.3817
 20
49.7459
 30
0.0
 11
21.3817
 21
55.5459
 31
0.0
  0
LINE
  8
0
 62
     0
 10
21.3817
 20
55.5459
 30
0.0
 11
22.1809
 21
55.5459
 31
0.0
  0
LINE
  8
0
 62
     0
 10
22.1809
 20
55.5459
 30
0.0
 11
22.1809
 21
58.6465
 31
0.0
  0
LINE
  8
0
 62
     0
 10
22.1809
 20
58.6465
 30
0.0
 11
21.3817
 21
58.6465
 31
0.0
  0
LINE
  8
0
 62
     0
 10
21.3817
 20
58.6465
 30
0.0
 11
21.3817
 21
59.6456
 31
0.0
  0
LINE
  8
0
 62
     0
 10
21.3817
 20
59.6456
 30
0.0
 11
7.38216
 21
59.6456
 31
0.0
  0
LINE
  8
0
 62
     0
 10
35.9572
 20
59.6456
 30
0.0
 11
35.9572
 21
58.6465
 31
0.0
  0
LINE
  8
0
 62
     0
 10
35.9572
 20
58.6465
 30
0.0
 11
35.1565
 21
58.6465
 31
0.0
  0
LINE
  8
0
 62
     0
 10
35.1565
 20
58.6465
 30
0.0
 11
35.1565
 21
55.5459
 31
0.0
  0
LINE
  8
0
 62
     0
 10
35.1565
 20
55.5459
 30
0.0
 11
35.9572
 21
55.5459
 31
0.0
  0
LINE
  8
0
 62
     0
 10
35.9572
 20
55.5459
 30
0.0
 11
35.9572
 21
49.7459
 31
0.0
  0
LINE
  8
0
 62
     0
 10
35.9572
 20
49.7459
 30
0.0
 11
35.1565
 21
49.7459
 31
0.0
  0
LINE
  8
0
 62
     0
 10
35.1565
 20
49.7459
 30
0.0
 11
35.1565
 21
46.6467
 31
0.0
  0
LINE
  8
0
 62
     0
 10
35.1565
 20
46.6467
 30
0.0
 11
35.9572
 21
46.6467
 31
0.0
  0
LINE
  8
0
 62
     0
 10
35.9572
 20
46.6467
 30
0.0
 11
35.9572
 21
45.6463
 31
0.0
  0
LINE
  8
0
 62
     0
 10
35.9572
 20
45.6463
 30
0.0
 11
49.9565
 21
45.6463
 31
0.0
  0
LINE
  8
0
 62
     0
 10
49.9565
 20
45.6463
 30
0.0
 11
49.9565
 21
46.6467
 31
0.0
  0
LINE
  8
0
 62
     0
 10
49.9565
 20
46.6467
 30
0.0
 11
50.7559
 21
46.6467
 31
0.0
  0
LINE
  8
0
 62
     0
 10
50.7559
 20
46.6467
 30
0.0
 11
50.7559
 21
49.7459
 31
0.0
  0
LINE
  8
0
 62
     0
 10
50.7559
 20
49.7459
 30
0.0
 11
49.9565
 21
49.7459
 31
0.0
  0
LINE
  8
0
 62
     0
 10
49.9565
 20
49.7459
 30
0.0
 11
49.9565
 21
55.5459
 31
0.0
  0
LINE
  8
0
 62
     0
 10
49.9565
 20
55.5459
 30
0.0
 11
50.7559
 21
55.5459
 31
0.0
  0
LINE
  8
0
 62
     0
 10
50.7559
 20
55.5459
 30
0.0
 11
50.7559
 21
58.6465
 31
0.0
  0
LINE
  8
0
 62
     0
 10
50.7559
 20
58.6465
 30
0.0
 11
49.9565
 21
58.6465
 31
0.0
  0
LINE
  8
0
 62
     0
 10
49.9565
 20
58.6465
 30
0.0
 11
49.9565
 21
59.6456
 31
0.0
  0
LINE
  8
0
 62
     0
 10
49.9565
 20
59.6456
 30
0.0
 11
35.9572
 21
59.6456
 31
0.0
  0
LINE
  8
0
 62
     0
 10
55.0072
 20
59.6456
 30
0.0
 11
55.0072
 21
58.6465
 31
0.0
  0
LINE
  8
0
 62
     0
 10
55.0072
 20
58.6465
 30
0.0
 11
54.2064
 21
58.6465
 31
0.0
  0
LINE
  8
0
 62
     0
 10
54.2064
 20
58.6465
 30
0.0
 11
54.2064
 21
55.5459
 31
0.0
  0
LINE
  8
0
 62
     0
 10
54.2064
 20
55.5459
 30
0.0
 11
55.0072
 21
55.5459
 31
0.0
  0
LINE
  8
0
 62
     0
 10
55.0072
 20
55.5459
 30
0.0
 11
55.0072
 21
49.7459
 31
0.0
  0
LINE
  8
0
 62
     0
 10
55.0072
 20
49.7459
 30
0.0
 11
54.2064
 21
49.7459
 31
0.0
  0
LINE
  8
0
 62
     0
 10
54.2064
 20
49.7459
 30
0.0
 11
54.2064
 21
46.6467
 31
0.0
  0
LINE
  8
0
 62
     0
 10
54.2064
 20
46.6467
 30
0.0
 11
55.0072
 21
46.6467
 31
0.0
  0
LINE
  8
0
 62
     0
 10
55.0072
 20
46.6467
 30
0.0
 11
55.0072
 21
45.6463
 31
0.0
  0
LINE
  8
0
 62
     0
 10
55.0072
 20
45.6463
 30
0.0
 11
69.0065
 21
45.6463
 31
0.0
  0
LINE
  8
0
 62
     0
 10
69.0065
 20
45.6463
 30
0.0
 11
69.0065
 21
46.6467
 31
0.0
  0
LINE
  8
0
 62
     0
 10
69.0065
 20
46.6467
 30
0.0
 11
69.8059
 21
46.6467
 31
0.0
  0
LINE
  8
0
 62
     0
 10
69.8059
 20
46.6467
 30
0.0
 11
69.8059
 21
49.7459
 31
0.0
  0
LINE
  8
0
 62
     0
 10
69.8059
 20
49.7459
 30
0.0
 11
69.0065
 21
49.7459
 31
0.0
  0
LINE
  8
0
 62
     0
 10
69.0065
 20
49.7459
 30
0.0
 11
69.0065
 21
55.5459
 31
0.0
  0
LINE
  8
0
 62
     0
 10
69.0065
 20
55.5459
 30
0.0
 11
69.8059
 21
55.5459
 31
0.0
  0
LINE
  8
0
 62
     0
 10
69.8059
 20
55.5459
 30
0.0
 11
69.8059
 21
58.6465
 31
0.0
  0
LINE
  8
0
 62
     0
 10
69.8059
 20
58.6465
 30
0.0
 11
69.0065
 21
58.6465
 31
0.0
  0
LINE
  8
0
 62
     0
 10
69.0065
 20
58.6465
 30
0.0
 11
69.0065
 21
59.6456
 31
0.0
  0
LINE
  8
0
 62
     0
 10
69.0065
 20
59.6456
 30
0.0
 11
55.0072
 21
59.6456
 31
0.0
  0
LINE
  8
0
 62
     0
 10
74.0572
 20
59.6456
 30
0.0
 11
74.0572
 21
58.6465
 31
0.0
  0
LINE
  8
0
 62
     0
 10
74.0572
 20
58.6465
 30
0.0
 11
73.2564
 21
58.6465
 31
0.0
  0
LINE
  8
0
 62
     0
 10
73.2564
 20
58.6465
 30
0.0
 11
73.2564
 21
55.5459
 31
0.0
  0
LINE
  8
0
 62
     0
 10
73.2564
 20
55.5459
 30
0.0
 11
74.0572
 21
55.5459
 31
0.0
  0
LINE
  8
0
 62
     0
 10
74.0572
 20
55.5459
 30
0.0
 11
74.0572
 21
49.7459
 31
0.0
  0
LINE
  8
0
 62
     0
 10
74.0572
 20
49.7459
 30
0.0
 11
73.2564
 21
49.7459
 31
0.0
  0
LINE
  8
0
 62
     0
 10
73.2564
 20
49.7459
 30
0.0
 11
73.2564
 21
46.6467
 31
0.0
  0
LINE
  8
0
 62
     0
 10
73.2564
 20
46.6467
 30
0.0
 11
74.0572
 21
46.6467
 31
0.0
  0
LINE
  8
0
 62
     0
 10
74.0572
 20
46.6467
 30
0.0
 11
74.0572
 21
45.6463
 31
0.0
  0
LINE
  8
0
 62
     0
 10
74.0572
 20
45.6463
 30
0.0
 11
88.0565
 21
45.6463
 31
0.0
  0
LINE
  8
0
 62
     0
 10
88.0565
 20
45.6463
 30
0.0
 11
88.0565
 21
46.6467
 31
0.0
  0
LINE
  8
0
 62
     0
 10
88.0565
 20
46.6467
 30
0.0
 11
88.8559
 21
46.6467
 31
0.0
  0
LINE
  8
0
 62
     0
 10
88.8559
 20
46.6467
 30
0.0
 11
88.8559
 21
49.7459
 31
0.0
  0
LINE
  8
0
 62
     0
 10
88.8559
 20
49.7459
 30
0.0
 11
88.0565
 21
49.7459
 31
0.0
  0
LINE
  8
0
 62
     0
 10
88.0565
 20
49.7459
 30
0.0
 11
88.0565
 21
55.5459
 31
0.0
  0
LINE
  8
0
 62
     0
 10
88.0565
 20
55.5459
 30
0.0
 11
88.8559
 21
55.5459
 31
0.0
  0
LINE
  8
0
 62
     0
 10
88.8559
 20
55.5459
 30
0.0
 11
88.8559
 21
58.6465
 31
0.0
  0
LINE
  8
0
 62
     0
 10
88.8559
 20
58.6465
 30
0.0
 11
88.0565
 21
58.6465
 31
0.0
  0
LINE
  8
0
 62
     0
 10
88.0565
 20
58.6465
 30
0.0
 11
88.0565
 21
59.6456
 31
0.0
  0
LINE
  8
0
 62
     0
 10
88.0565
 20
59.6456
 30
0.0
 11
74.0572
 21
59.6456
 31
0.0
  0
LINE
  8
0
 62
     0
 10
99.6061
 20
78.2712
 30
0.0
 11
99.6061
 21
77.4457
 31
0.0
  0
LINE
  8
0
 62
     0
 10
99.6061
 20
77.4457
 30
0.0
 11
93.3358
 21
77.4457
 31
0.0
  0
LINE
  8
0
 62
     0
 10
93.3358
 20
77.4457
 30
0.0
 11
93.3358
 21
75.722
 31
0.0
  0
LINE
  8
0
 62
     0
 10
93.3358
 20
75.722
 30
0.0
 11
92.3562
 21
75.722
 31
0.0
  0
LINE
  8
0
 62
     0
 10
92.3562
 20
75.722
 30
0.0
 11
92.3562
 21
72.4214
 31
0.0
  0
LINE
  8
0
 62
     0
 10
92.3562
 20
72.4214
 30
0.0
 11
93.3358
 21
72.4214
 31
0.0
  0
LINE
  8
0
 62
     0
 10
93.3358
 20
72.4214
 30
0.0
 11
93.3358
 21
70.696
 31
0.0
  0
LINE
  8
0
 62
     0
 10
93.3358
 20
70.696
 30
0.0
 11
97.8062
 21
70.696
 31
0.0
  0
LINE
  8
0
 62
     0
 10
97.8062
 20
70.696
 30
0.0
 11
97.8062
 21
69.1706
 31
0.0
  0
LINE
  8
0
 62
     0
 10
97.8062
 20
69.1706
 30
0.0
 11
97.2069
 21
69.1706
 31
0.0
  0
LINE
  8
0
 62
     0
 10
97.2069
 20
69.1706
 30
0.0
 11
97.2069
 21
69.9714
 31
0.0
  0
LINE
  8
0
 62
     0
 10
97.2069
 20
69.9714
 30
0.0
 11
94.1063
 21
69.9714
 31
0.0
  0
LINE
  8
0
 62
     0
 10
94.1063
 20
69.9714
 30
0.0
 11
94.1063
 21
69.1706
 31
0.0
  0
LINE
  8
0
 62
     0
 10
94.1063
 20
69.1706
 30
0.0
 11
93.1072
 21
69.1706
 31
0.0
  0
LINE
  8
0
 62
     0
 10
93.1072
 20
69.1706
 30
0.0
 11
93.1072
 21
55.1713
 31
0.0
  0
LINE
  8
0
 62
     0
 10
93.1072
 20
55.1713
 30
0.0
 11
94.1063
 21
55.1713
 31
0.0
  0
LINE
  8
0
 62
     0
 10
94.1063
 20
55.1713
 30
0.0
 11
94.1063
 21
54.3719
 31
0.0
  0
LINE
  8
0
 62
     0
 10
94.1063
 20
54.3719
 30
0.0
 11
97.2069
 21
54.3719
 31
0.0
  0
LINE
  8
0
 62
     0
 10
97.2069
 20
54.3719
 30
0.0
 11
97.2069
 21
55.1713
 31
0.0
  0
LINE
  8
0
 62
     0
 10
97.2069
 20
55.1713
 30
0.0
 11
97.8062
 21
55.1713
 31
0.0
  0
LINE
  8
0
 62
     0
 10
97.8062
 20
55.1713
 30
0.0
 11
97.8062
 21
53.6455
 31
0.0
  0
LINE
  8
0
 62
     0
 10
97.8062
 20
53.6455
 30
0.0
 11
93.3358
 21
53.6455
 31
0.0
  0
LINE
  8
0
 62
     0
 10
93.3358
 20
53.6455
 30
0.0
 11
93.3358
 21
51.9218
 31
0.0
  0
LINE
  8
0
 62
     0
 10
93.3358
 20
51.9218
 30
0.0
 11
92.3562
 21
51.9218
 31
0.0
  0
LINE
  8
0
 62
     0
 10
92.3562
 20
51.9218
 30
0.0
 11
92.3562
 21
48.6212
 31
0.0
  0
LINE
  8
0
 62
     0
 10
92.3562
 20
48.6212
 30
0.0
 11
93.3358
 21
48.6212
 31
0.0
  0
LINE
  8
0
 62
     0
 10
93.3358
 20
48.6212
 30
0.0
 11
93.3358
 21
46.8962
 31
0.0
  0
LINE
  8
0
 62
     0
 10
93.3358
 20
46.8962
 30
0.0
 11
99.6061
 21
46.8962
 31
0.0
  0
LINE
  8
0
 62
     0
 10
99.6061
 20
46.8962
 30
0.0
 11
99.6061
 21
46.0721
 31
0.0
  0
LINE
  8
0
 62
     0
 10
99.6061
 20
46.0721
 30
0.0
 11
102.406
 21
46.0721
 31
0.0
  0
LINE
  8
0
 62
     0
 10
102.406
 20
46.0721
 30
0.0
 11
102.406
 21
46.8962
 31
0.0
  0
LINE
  8
0
 62
     0
 10
102.406
 20
46.8962
 30
0.0
 11
105.636
 21
46.8962
 31
0.0
  0
LINE
  8
0
 62
     0
 10
105.636
 20
46.8962
 30
0.0
 11
105.636
 21
48.6212
 31
0.0
  0
LINE
  8
0
 62
     0
 10
105.636
 20
48.6212
 30
0.0
 11
106.557
 21
48.6212
 31
0.0
  0
LINE
  8
0
 62
     0
 10
106.557
 20
48.6212
 30
0.0
 11
106.557
 21
51.9218
 31
0.0
  0
LINE
  8
0
 62
     0
 10
106.557
 20
51.9218
 30
0.0
 11
105.636
 21
51.9218
 31
0.0
  0
LINE
  8
0
 62
     0
 10
105.636
 20
51.9218
 30
0.0
 11
105.636
 21
53.6455
 31
0.0
  0
LINE
  8
0
 62
     0
 10
105.636
 20
53.6455
 30
0.0
 11
102.406
 21
53.6455
 31
0.0
  0
LINE
  8
0
 62
     0
 10
102.406
 20
53.6455
 30
0.0
 11
102.406
 21
55.1713
 31
0.0
  0
LINE
  8
0
 62
     0
 10
102.406
 20
55.1713
 30
0.0
 11
103.007
 21
55.1713
 31
0.0
  0
LINE
  8
0
 62
     0
 10
103.007
 20
55.1713
 30
0.0
 11
103.007
 21
54.3719
 31
0.0
  0
LINE
  8
0
 62
     0
 10
103.007
 20
54.3719
 30
0.0
 11
106.106
 21
54.3719
 31
0.0
  0
LINE
  8
0
 62
     0
 10
106.106
 20
54.3719
 30
0.0
 11
106.106
 21
55.1713
 31
0.0
  0
LINE
  8
0
 62
     0
 10
106.106
 20
55.1713
 30
0.0
 11
107.107
 21
55.1713
 31
0.0
  0
LINE
  8
0
 62
     0
 10
107.107
 20
55.1713
 30
0.0
 11
107.107
 21
69.1706
 31
0.0
  0
LINE
  8
0
 62
     0
 10
107.107
 20
69.1706
 30
0.0
 11
106.106
 21
69.1706
 31
0.0
  0
LINE
  8
0
 62
     0
 10
106.106
 20
69.1706
 30
0.0
 11
106.106
 21
69.9714
 31
0.0
  0
LINE
  8
0
 62
     0
 10
106.106
 20
69.9714
 30
0.0
 11
103.007
 21
69.9714
 31
0.0
  0
LINE
  8
0
 62
     0
 10
103.007
 20
69.9714
 30
0.0
 11
103.007
 21
69.1706
 31
0.0
  0
LINE
  8
0
 62
     0
 10
103.007
 20
69.1706
 30
0.0
 11
102.406
 21
69.1706
 31
0.0
  0
LINE
  8
0
 62
     0
 10
102.406
 20
69.1706
 30
0.0
 11
102.406
 21
70.696
 31
0.0
  0
LINE
  8
0
 62
     0
 10
102.406
 20
70.696
 30
0.0
 11
105.636
 21
70.696
 31
0.0
  0
LINE
  8
0
 62
     0
 10
105.636
 20
70.696
 30
0.0
 11
105.636
 21
72.4214
 31
0.0
  0
LINE
  8
0
 62
     0
 10
105.636
 20
72.4214
 30
0.0
 11
106.557
 21
72.4214
 31
0.0
  0
LINE
  8
0
 62
     0
 10
106.557
 20
72.4214
 30
0.0
 11
106.557
 21
75.722
 31
0.0
  0
LINE
  8
0
 62
     0
 10
106.557
 20
75.722
 30
0.0
 11
105.636
 21
75.722
 31
0.0
  0
LINE
  8
0
 62
     0
 10
105.636
 20
75.722
 30
0.0
 11
105.636
 21
77.4457
 31
0.0
  0
LINE
  8
0
 62
     0
 10
105.636
 20
77.4457
 30
0.0
 11
102.406
 21
77.4457
 31
0.0
  0
LINE
  8
0
 62
     0
 10
102.406
 20
77.4457
 30
0.0
 11
102.406
 21
78.2712
 31
0.0
  0
LINE
  8
0
 62
     0
 10
102.406
 20
78.2712
 30
0.0
 11
99.6061
 21
78.2712
 31
0.0
  0
LINE
  8
0
 62
     0
 10
7.38216
 20
78.6956
 30
0.0
 11
7.38216
 21
77.6965
 31
0.0
  0
LINE
  8
0
 62
     0
 10
7.38216
 20
77.6965
 30
0.0
 11
6.58153
 21
77.6965
 31
0.0
  0
LINE
  8
0
 62
     0
 10
6.58153
 20
77.6965
 30
0.0
 11
6.58153
 21
74.5959
 31
0.0
  0
LINE
  8
0
 62
     0
 10
6.58153
 20
74.5959
 30
0.0
 11
7.38216
 21
74.5959
 31
0.0
  0
LINE
  8
0
 62
     0
 10
7.38216
 20
74.5959
 30
0.0
 11
7.38216
 21
68.7959
 31
0.0
  0
LINE
  8
0
 62
     0
 10
7.38216
 20
68.7959
 30
0.0
 11
6.58153
 21
68.7959
 31
0.0
  0
LINE
  8
0
 62
     0
 10
6.58153
 20
68.7959
 30
0.0
 11
6.58153
 21
65.6967
 31
0.0
  0
LINE
  8
0
 62
     0
 10
6.58153
 20
65.6967
 30
0.0
 11
7.38216
 21
65.6967
 31
0.0
  0
LINE
  8
0
 62
     0
 10
7.38216
 20
65.6967
 30
0.0
 11
7.38216
 21
64.6963
 31
0.0
  0
LINE
  8
0
 62
     0
 10
7.38216
 20
64.6963
 30
0.0
 11
21.3817
 21
64.6963
 31
0.0
  0
LINE
  8
0
 62
     0
 10
21.3817
 20
64.6963
 30
0.0
 11
21.3817
 21
65.6967
 31
0.0
  0
LINE
  8
0
 62
     0
 10
21.3817
 20
65.6967
 30
0.0
 11
22.1809
 21
65.6967
 31
0.0
  0
LINE
  8
0
 62
     0
 10
22.1809
 20
65.6967
 30
0.0
 11
22.1809
 21
68.7959
 31
0.0
  0
LINE
  8
0
 62
     0
 10
22.1809
 20
68.7959
 30
0.0
 11
21.3817
 21
68.7959
 31
0.0
  0
LINE
  8
0
 62
     0
 10
21.3817
 20
68.7959
 30
0.0
 11
21.3817
 21
74.5959
 31
0.0
  0
LINE
  8
0
 62
     0
 10
21.3817
 20
74.5959
 30
0.0
 11
22.1809
 21
74.5959
 31
0.0
  0
LINE
  8
0
 62
     0
 10
22.1809
 20
74.5959
 30
0.0
 11
22.1809
 21
77.6965
 31
0.0
  0
LINE
  8
0
 62
     0
 10
22.1809
 20
77.6965
 30
0.0
 11
21.3817
 21
77.6965
 31
0.0
  0
LINE
  8
0
 62
     0
 10
21.3817
 20
77.6965
 30
0.0
 11
21.3817
 21
78.6956
 31
0.0
  0
LINE
  8
0
 62
     0
 10
21.3817
 20
78.6956
 30
0.0
 11
7.38216
 21
78.6956
 31
0.0
  0
LINE
  8
0
 62
     0
 10
35.9572
 20
78.6956
 30
0.0
 11
35.9572
 21
77.6965
 31
0.0
  0
LINE
  8
0
 62
     0
 10
35.9572
 20
77.6965
 30
0.0
 11
35.1565
 21
77.6965
 31
0.0
  0
LINE
  8
0
 62
     0
 10
35.1565
 20
77.6965
 30
0.0
 11
35.1565
 21
74.5959
 31
0.0
  0
LINE
  8
0
 62
     0
 10
35.1565
 20
74.5959
 30
0.0
 11
35.9572
 21
74.5959
 31
0.0
  0
LINE
  8
0
 62
     0
 10
35.9572
 20
74.5959
 30
0.0
 11
35.9572
 21
68.7959
 31
0.0
  0
LINE
  8
0
 62
     0
 10
35.9572
 20
68.7959
 30
0.0
 11
35.1565
 21
68.7959
 31
0.0
  0
LINE
  8
0
 62
     0
 10
35.1565
 20
68.7959
 30
0.0
 11
35.1565
 21
65.6967
 31
0.0
  0
LINE
  8
0
 62
     0
 10
35.1565
 20
65.6967
 30
0.0
 11
35.9572
 21
65.6967
 31
0.0
  0
LINE
  8
0
 62
     0
 10
35.9572
 20
65.6967
 30
0.0
 11
35.9572
 21
64.6963
 31
0.0
  0
LINE
  8
0
 62
     0
 10
35.9572
 20
64.6963
 30
0.0
 11
49.9565
 21
64.6963
 31
0.0
  0
LINE
  8
0
 62
     0
 10
49.9565
 20
64.6963
 30
0.0
 11
49.9565
 21
65.6967
 31
0.0
  0
LINE
  8
0
 62
     0
 10
49.9565
 20
65.6967
 30
0.0
 11
50.7559
 21
65.6967
 31
0.0
  0
LINE
  8
0
 62
     0
 10
50.7559
 20
65.6967
 30
0.0
 11
50.7559
 21
68.7959
 31
0.0
  0
LINE
  8
0
 62
     0
 10
50.7559
 20
68.7959
 30
0.0
 11
49.9565
 21
68.7959
 31
0.0
  0
LINE
  8
0
 62
     0
 10
49.9565
 20
68.7959
 30
0.0
 11
49.9565
 21
74.5959
 31
0.0
  0
LINE
  8
0
 62
     0
 10
49.9565
 20
74.5959
 30
0.0
 11
50.7559
 21
74.5959
 31
0.0
  0
LINE
  8
0
 62
     0
 10
50.7559
 20
74.5959
 30
0.0
 11
50.7559
 21
77.6965
 31
0.0
  0
LINE
  8
0
 62
     0
 10
50.7559
 20
77.6965
 30
0.0
 11
49.9565
 21
77.6965
 31
0.0
  0
LINE
  8
0
 62
     0
 10
49.9565
 20
77.6965
 30
0.0
 11
49.9565
 21
78.6956
 31
0.0
  0
LINE
  8
0
 62
     0
 10
49.9565
 20
78.6956
 30
0.0
 11
35.9572
 21
78.6956
 31
0.0
  0
LINE
  8
0
 62
     0
 10
55.0072
 20
78.6956
 30
0.0
 11
55.0072
 21
77.6965
 31
0.0
  0
LINE
  8
0
 62
     0
 10
55.0072
 20
77.6965
 30
0.0
 11
54.2064
 21
77.6965
 31
0.0
  0
LINE
  8
0
 62
     0
 10
54.2064
 20
77.6965
 30
0.0
 11
54.2064
 21
74.5959
 31
0.0
  0
LINE
  8
0
 62
     0
 10
54.2064
 20
74.5959
 30
0.0
 11
55.0072
 21
74.5959
 31
0.0
  0
LINE
  8
0
 62
     0
 10
55.0072
 20
74.5959
 30
0.0
 11
55.0072
 21
68.7959
 31
0.0
  0
LINE
  8
0
 62
     0
 10
55.0072
 20
68.7959
 30
0.0
 11
54.2064
 21
68.7959
 31
0.0
  0
LINE
  8
0
 62
     0
 10
54.2064
 20
68.7959
 30
0.0
 11
54.2064
 21
65.6967
 31
0.0
  0
LINE
  8
0
 62
     0
 10
54.2064
 20
65.6967
 30
0.0
 11
55.0072
 21
65.6967
 31
0.0
  0
LINE
  8
0
 62
     0
 10
55.0072
 20
65.6967
 30
0.0
 11
55.0072
 21
64.6963
 31
0.0
  0
LINE
  8
0
 62
     0
 10
55.0072
 20
64.6963
 30
0.0
 11
69.0065
 21
64.6963
 31
0.0
  0
LINE
  8
0
 62
     0
 10
69.0065
 20
64.6963
 30
0.0
 11
69.0065
 21
65.6967
 31
0.0
  0
LINE
  8
0
 62
     0
 10
69.0065
 20
65.6967
 30
0.0
 11
69.8059
 21
65.6967
 31
0.0
  0
LINE
  8
0
 62
     0
 10
69.8059
 20
65.6967
 30
0.0
 11
69.8059
 21
68.7959
 31
0.0
  0
LINE
  8
0
 62
     0
 10
69.8059
 20
68.7959
 30
0.0
 11
69.0065
 21
68.7959
 31
0.0
  0
LINE
  8
0
 62
     0
 10
69.0065
 20
68.7959
 30
0.0
 11
69.0065
 21
74.5959
 31
0.0
  0
LINE
  8
0
 62
     0
 10
69.0065
 20
74.5959
 30
0.0
 11
69.8059
 21
74.5959
 31
0.0
  0
LINE
  8
0
 62
     0
 10
69.8059
 20
74.5959
 30
0.0
 11
69.8059
 21
77.6965
 31
0.0
  0
LINE
  8
0
 62
     0
 10
69.8059
 20
77.6965
 30
0.0
 11
69.0065
 21
77.6965
 31
0.0
  0
LINE
  8
0
 62
     0
 10
69.0065
 20
77.6965
 30
0.0
 11
69.0065
 21
78.6956
 31
0.0
  0
LINE
  8
0
 62
     0
 10
69.0065
 20
78.6956
 30
0.0
 11
55.0072
 21
78.6956
 31
0.0
  0
LINE
  8
0
 62
     0
 10
74.0572
 20
78.6956
 30
0.0
 11
74.0572
 21
77.6965
 31
0.0
  0
LINE
  8
0
 62
     0
 10
74.0572
 20
77.6965
 30
0.0
 11
73.2564
 21
77.6965
 31
0.0
  0
LINE
  8
0
 62
     0
 10
73.2564
 20
77.6965
 30
0.0
 11
73.2564
 21
74.5959
 31
0.0
  0
LINE
  8
0
 62
     0
 10
73.2564
 20
74.5959
 30
0.0
 11
74.0572
 21
74.5959
 31
0.0
  0
LINE
  8
0
 62
     0
 10
74.0572
 20
74.5959
 30
0.0
 11
74.0572
 21
68.7959
 31
0.0
  0
LINE
  8
0
 62
     0
 10
74.0572
 20
68.7959
 30
0.0
 11
73.2564
 21
68.7959
 31
0.0
  0
LINE
  8
0
 62
     0
 10
73.2564
 20
68.7959
 30
0.0
 11
73.2564
 21
65.6967
 31
0.0
  0
LINE
  8
0
 62
     0
 10
73.2564
 20
65.6967
 30
0.0
 11
74.0572
 21
65.6967
 31
0.0
  0
LINE
  8
0
 62
     0
 10
74.0572
 20
65.6967
 30
0.0
 11
74.0572
 21
64.6963
 31
0.0
  0
LINE
  8
0
 62
     0
 10
74.0572
 20
64.6963
 30
0.0
 11
88.0565
 21
64.6963
 31
0.0
  0
LINE
  8
0
 62
     0
 10
88.0565
 20
64.6963
 30
0.0
 11
88.0565
 21
65.6967
 31
0.0
  0
LINE
  8
0
 62
     0
 10
88.0565
 20
65.6967
 30
0.0
 11
88.8559
 21
65.6967
 31
0.0
  0
LINE
  8
0
 62
     0
 10
88.8559
 20
65.6967
 30
0.0
 11
88.8559
 21
68.7959
 31
0.0
  0
LINE
  8
0
 62
     0
 10
88.8559
 20
68.7959
 30
0.0
 11
88.0565
 21
68.7959
 31
0.0
  0
LINE
  8
0
 62
     0
 10
88.0565
 20
68.7959
 30
0.0
 11
88.0565
 21
74.5959
 31
0.0
  0
LINE
  8
0
 62
     0
 10
88.0565
 20
74.5959
 30
0.0
 11
88.8559
 21
74.5959
 31
0.0
  0
LINE
  8
0
 62
     0
 10
88.8559
 20
74.5959
 30
0.0
 11
88.8559
 21
77.6965
 31
0.0
  0
LINE
  8
0
 62
     0
 10
88.8559
 20
77.6965
 30
0.0
 11
88.0565
 21
77.6965
 31
0.0
  0
LINE
  8
0
 62
     0
 10
88.0565
 20
77.6965
 30
0.0
 11
88.0565
 21
78.6956
 31
0.0
  0
LINE
  8
0
 62
     0
 10
88.0565
 20
78.6956
 30
0.0
 11
74.0572
 21
78.6956
 31
0.0
  0
LINE
  8
0
 62
     0
 10
7.38216
 20
97.7456
 30
0.0
 11
7.38216
 21
96.7465
 31
0.0
  0
LINE
  8
0
 62
     0
 10
7.38216
 20
96.7465
 30
0.0
 11
6.58153
 21
96.7465
 31
0.0
  0
LINE
  8
0
 62
     0
 10
6.58153
 20
96.7465
 30
0.0
 11
6.58153
 21
93.6459
 31
0.0
  0
LINE
  8
0
 62
     0
 10
6.58153
 20
93.6459
 30
0.0
 11
7.38216
 21
93.6459
 31
0.0
  0
LINE
  8
0
 62
     0
 10
7.38216
 20
93.6459
 30
0.0
 11
7.38216
 21
87.8459
 31
0.0
  0
LINE
  8
0
 62
     0
 10
7.38216
 20
87.8459
 30
0.0
 11
6.58153
 21
87.8459
 31
0.0
  0
LINE
  8
0
 62
     0
 10
6.58153
 20
87.8459
 30
0.0
 11
6.58153
 21
84.7467
 31
0.0
  0
LINE
  8
0
 62
     0
 10
6.58153
 20
84.7467
 30
0.0
 11
7.38216
 21
84.7467
 31
0.0
  0
LINE
  8
0
 62
     0
 10
7.38216
 20
84.7467
 30
0.0
 11
7.38216
 21
83.7463
 31
0.0
  0
LINE
  8
0
 62
     0
 10
7.38216
 20
83.7463
 30
0.0
 11
21.3817
 21
83.7463
 31
0.0
  0
LINE
  8
0
 62
     0
 10
21.3817
 20
83.7463
 30
0.0
 11
21.3817
 21
84.7467
 31
0.0
  0
LINE
  8
0
 62
     0
 10
21.3817
 20
84.7467
 30
0.0
 11
22.1809
 21
84.7467
 31
0.0
  0
LINE
  8
0
 62
     0
 10
22.1809
 20
84.7467
 30
0.0
 11
22.1809
 21
87.8459
 31
0.0
  0
LINE
  8
0
 62
     0
 10
22.1809
 20
87.8459
 30
0.0
 11
21.3817
 21
87.8459
 31
0.0
  0
LINE
  8
0
 62
     0
 10
21.3817
 20
87.8459
 30
0.0
 11
21.3817
 21
93.6459
 31
0.0
  0
LINE
  8
0
 62
     0
 10
21.3817
 20
93.6459
 30
0.0
 11
22.1809
 21
93.6459
 31
0.0
  0
LINE
  8
0
 62
     0
 10
22.1809
 20
93.6459
 30
0.0
 11
22.1809
 21
96.7465
 31
0.0
  0
LINE
  8
0
 62
     0
 10
22.1809
 20
96.7465
 30
0.0
 11
21.3817
 21
96.7465
 31
0.0
  0
LINE
  8
0
 62
     0
 10
21.3817
 20
96.7465
 30
0.0
 11
21.3817
 21
97.7456
 31
0.0
  0
LINE
  8
0
 62
     0
 10
21.3817
 20
97.7456
 30
0.0
 11
7.38216
 21
97.7456
 31
0.0
  0
LINE
  8
0
 62
     0
 10
35.9572
 20
97.7456
 30
0.0
 11
35.9572
 21
96.7465
 31
0.0
  0
LINE
  8
0
 62
     0
 10
35.9572
 20
96.7465
 30
0.0
 11
35.1565
 21
96.7465
 31
0.0
  0
LINE
  8
0
 62
     0
 10
35.1565
 20
96.7465
 30
0.0
 11
35.1565
 21
93.6459
 31
0.0
  0
LINE
  8
0
 62
     0
 10
35.1565
 20
93.6459
 30
0.0
 11
35.9572
 21
93.6459
 31
0.0
  0
LINE
  8
0
 62
     0
 10
35.9572
 20
93.6459
 30
0.0
 11
35.9572
 21
87.8459
 31
0.0
  0
LINE
  8
0
 62
     0
 10
35.9572
 20
87.8459
 30
0.0
 11
35.1565
 21
87.8459
 31
0.0
  0
LINE
  8
0
 62
     0
 10
35.1565
 20
87.8459
 30
0.0
 11
35.1565
 21
84.7467
 31
0.0
  0
LINE
  8
0
 62
     0
 10
35.1565
 20
84.7467
 30
0.0
 11
35.9572
 21
84.7467
 31
0.0
  0
LINE
  8
0
 62
     0
 10
35.9572
 20
84.7467
 30
0.0
 11
35.9572
 21
83.7463
 31
0.0
  0
LINE
  8
0
 62
     0
 10
35.9572
 20
83.7463
 30
0.0
 11
49.9565
 21
83.7463
 31
0.0
  0
LINE
  8
0
 62
     0
 10
49.9565
 20
83.7463
 30
0.0
 11
49.9565
 21
84.7467
 31
0.0
  0
LINE
  8
0
 62
     0
 10
49.9565
 20
84.7467
 30
0.0
 11
50.7559
 21
84.7467
 31
0.0
  0
LINE
  8
0
 62
     0
 10
50.7559
 20
84.7467
 30
0.0
 11
50.7559
 21
87.8459
 31
0.0
  0
LINE
  8
0
 62
     0
 10
50.7559
 20
87.8459
 30
0.0
 11
49.9565
 21
87.8459
 31
0.0
  0
LINE
  8
0
 62
     0
 10
49.9565
 20
87.8459
 30
0.0
 11
49.9565
 21
93.6459
 31
0.0
  0
LINE
  8
0
 62
     0
 10
49.9565
 20
93.6459
 30
0.0
 11
50.7559
 21
93.6459
 31
0.0
  0
LINE
  8
0
 62
     0
 10
50.7559
 20
93.6459
 30
0.0
 11
50.7559
 21
96.7465
 31
0.0
  0
LINE
  8
0
 62
     0
 10
50.7559
 20
96.7465
 30
0.0
 11
49.9565
 21
96.7465
 31
0.0
  0
LINE
  8
0
 62
     0
 10
49.9565
 20
96.7465
 30
0.0
 11
49.9565
 21
97.7456
 31
0.0
  0
LINE
  8
0
 62
     0
 10
49.9565
 20
97.7456
 30
0.0
 11
35.9572
 21
97.7456
 31
0.0
  0
LINE
  8
0
 62
     0
 10
55.0072
 20
97.7456
 30
0.0
 11
55.0072
 21
96.7465
 31
0.0
  0
LINE
  8
0
 62
     0
 10
55.0072
 20
96.7465
 30
0.0
 11
54.2064
 21
96.7465
 31
0.0
  0
LINE
  8
0
 62
     0
 10
54.2064
 20
96.7465
 30
0.0
 11
54.2064
 21
93.6459
 31
0.0
  0
LINE
  8
0
 62
     0
 10
54.2064
 20
93.6459
 30
0.0
 11
55.0072
 21
93.6459
 31
0.0
  0
LINE
  8
0
 62
     0
 10
55.0072
 20
93.6459
 30
0.0
 11
55.0072
 21
87.8459
 31
0.0
  0
LINE
  8
0
 62
     0
 10
55.0072
 20
87.8459
 30
0.0
 11
54.2064
 21
87.8459
 31
0.0
  0
LINE
  8
0
 62
     0
 10
54.2064
 20
87.8459
 30
0.0
 11
54.2064
 21
84.7467
 31
0.0
  0
LINE
  8
0
 62
     0
 10
54.2064
 20
84.7467
 30
0.0
 11
55.0072
 21
84.7467
 31
0.0
  0
LINE
  8
0
 62
     0
 10
55.0072
 20
84.7467
 30
0.0
 11
55.0072
 21
83.7463
 31
0.0
  0
LINE
  8
0
 62
     0
 10
55.0072
 20
83.7463
 30
0.0
 11
69.0065
 21
83.7463
 31
0.0
  0
LINE
  8
0
 62
     0
 10
69.0065
 20
83.7463
 30
0.0
 11
69.0065
 21
84.7467
 31
0.0
  0
LINE
  8
0
 62
     0
 10
69.0065
 20
84.7467
 30
0.0
 11
69.8059
 21
84.7467
 31
0.0
  0
LINE
  8
0
 62
     0
 10
69.8059
 20
84.7467
 30
0.0
 11
69.8059
 21
87.8459
 31
0.0
  0
LINE
  8
0
 62
     0
 10
69.8059
 20
87.8459
 30
0.0
 11
69.0065
 21
87.8459
 31
0.0
  0
LINE
  8
0
 62
     0
 10
69.0065
 20
87.8459
 30
0.0
 11
69.0065
 21
93.6459
 31
0.0
  0
LINE
  8
0
 62
     0
 10
69.0065
 20
93.6459
 30
0.0
 11
69.8059
 21
93.6459
 31
0.0
  0
LINE
  8
0
 62
     0
 10
69.8059
 20
93.6459
 30
0.0
 11
69.8059
 21
96.7465
 31
0.0
  0
LINE
  8
0
 62
     0
 10
69.8059
 20
96.7465
 30
0.0
 11
69.0065
 21
96.7465
 31
0.0
  0
LINE
  8
0
 62
     0
 10
69.0065
 20
96.7465
 30
0.0
 11
69.0065
 21
97.7456
 31
0.0
  0
LINE
  8
0
 62
     0
 10
69.0065
 20
97.7456
 30
0.0
 11
55.0072
 21
97.7456
 31
0.0
  0
LINE
  8
0
 62
     0
 10
74.0572
 20
97.7456
 30
0.0
 11
74.0572
 21
96.7465
 31
0.0
  0
LINE
  8
0
 62
     0
 10
74.0572
 20
96.7465
 30
0.0
 11
73.2564
 21
96.7465
 31
0.0
  0
LINE
  8
0
 62
     0
 10
73.2564
 20
96.7465
 30
0.0
 11
73.2564
 21
93.6459
 31
0.0
  0
LINE
  8
0
 62
     0
 10
73.2564
 20
93.6459
 30
0.0
 11
74.0572
 21
93.6459
 31
0.0
  0
LINE
  8
0
 62
     0
 10
74.0572
 20
93.6459
 30
0.0
 11
74.0572
 21
87.8459
 31
0.0
  0
LINE
  8
0
 62
     0
 10
74.0572
 20
87.8459
 30
0.0
 11
73.2564
 21
87.8459
 31
0.0
  0
LINE
  8
0
 62
     0
 10
73.2564
 20
87.8459
 30
0.0
 11
73.2564
 21
84.7467
 31
0.0
  0
LINE
  8
0
 62
     0
 10
73.2564
 20
84.7467
 30
0.0
 11
74.0572
 21
84.7467
 31
0.0
  0
LINE
  8
0
 62
     0
 10
74.0572
 20
84.7467
 30
0.0
 11
74.0572
 21
83.7463
 31
0.0
  0
LINE
  8
0
 62
     0
 10
74.0572
 20
83.7463
 30
0.0
 11
88.0565
 21
83.7463
 31
0.0
  0
LINE
  8
0
 62
     0
 10
88.0565
 20
83.7463
 30
0.0
 11
88.0565
 21
84.7467
 31
0.0
  0
LINE
  8
0
 62
     0
 10
88.0565
 20
84.7467
 30
0.0
 11
88.8559
 21
84.7467
 31
0.0
  0
LINE
  8
0
 62
     0
 10
88.8559
 20
84.7467
 30
0.0
 11
88.8559
 21
87.8459
 31
0.0
  0
LINE
  8
0
 62
     0
 10
88.8559
 20
87.8459
 30
0.0
 11
88.0565
 21
87.8459
 31
0.0
  0
LINE
  8
0
 62
     0
 10
88.0565
 20
87.8459
 30
0.0
 11
88.0565
 21
93.6459
 31
0.0
  0
LINE
  8
0
 62
     0
 10
88.0565
 20
93.6459
 30
0.0
 11
88.8559
 21
93.6459
 31
0.0
  0
LINE
  8
0
 62
     0
 10
88.8559
 20
93.6459
 30
0.0
 11
88.8559
 21
96.7465
 31
0.0
  0
LINE
  8
0
 62
     0
 10
88.8559
 20
96.7465
 30
0.0
 11
88.0565
 21
96.7465
 31
0.0
  0
LINE
  8
0
 62
     0
 10
88.0565
 20
96.7465
 30
0.0
 11
88.0565
 21
97.7456
 31
0.0
  0
LINE
  8
0
 62
     0
 10
88.0565
 20
97.7456
 30
0.0
 11
74.0572
 21
97.7456
 31
0.0
  0
LINE
  8
0
 62
     0
 10
93.1072
 20
97.7456
 30
0.0
 11
93.1072
 21
96.7465
 31
0.0
  0
LINE
  8
0
 62
     0
 10
93.1072
 20
96.7465
 30
0.0
 11
92.3064
 21
96.7465
 31
0.0
  0
LINE
  8
0
 62
     0
 10
92.3064
 20
96.7465
 30
0.0
 11
92.3064
 21
93.6459
 31
0.0
  0
LINE
  8
0
 62
     0
 10
92.3064
 20
93.6459
 30
0.0
 11
93.1072
 21
93.6459
 31
0.0
  0
LINE
  8
0
 62
     0
 10
93.1072
 20
93.6459
 30
0.0
 11
93.1072
 21
87.8459
 31
0.0
  0
LINE
  8
0
 62
     0
 10
93.1072
 20
87.8459
 30
0.0
 11
92.3064
 21
87.8459
 31
0.0
  0
LINE
  8
0
 62
     0
 10
92.3064
 20
87.8459
 30
0.0
 11
92.3064
 21
84.7467
 31
0.0
  0
LINE
  8
0
 62
     0
 10
92.3064
 20
84.7467
 30
0.0
 11
93.1072
 21
84.7467
 31
0.0
  0
LINE
  8
0
 62
     0
 10
93.1072
 20
84.7467
 30
0.0
 11
93.1072
 21
83.7463
 31
0.0
  0
LINE
  8
0
 62
     0
 10
93.1072
 20
83.7463
 30
0.0
 11
107.107
 21
83.7463
 31
0.0
  0
LINE
  8
0
 62
     0
 10
107.107
 20
83.7463
 30
0.0
 11
107.107
 21
84.7467
 31
0.0
  0
LINE
  8
0
 62
     0
 10
107.107
 20
84.7467
 30
0.0
 11
107.906
 21
84.7467
 31
0.0
  0
LINE
  8
0
 62
     0
 10
107.906
 20
84.7467
 30
0.0
 11
107.906
 21
87.8459
 31
0.0
  0
LINE
  8
0
 62
     0
 10
107.906
 20
87.8459
 30
0.0
 11
107.107
 21
87.8459
 31
0.0
  0
LINE
  8
0
 62
     0
 10
107.107
 20
87.8459
 30
0.0
 11
107.107
 21
93.6459
 31
0.0
  0
LINE
  8
0
 62
     0
 10
107.107
 20
93.6459
 30
0.0
 11
107.906
 21
93.6459
 31
0.0
  0
LINE
  8
0
 62
     0
 10
107.906
 20
93.6459
 30
0.0
 11
107.906
 21
96.7465
 31
0.0
  0
LINE
  8
0
 62
     0
 10
107.906
 20
96.7465
 30
0.0
 11
107.107
 21
96.7465
 31
0.0
  0
LINE
  8
0
 62
     0
 10
107.107
 20
96.7465
 30
0.0
 11
107.107
 21
97.7456
 31
0.0
  0
LINE
  8
0
 62
     0
 10
107.107
 20
97.7456
 30
0.0
 11
93.1072
 21
97.7456
 31
0.0
  0
ENDSEC
  0
EOF
